<svg id="Object" height="512" viewBox="0 0 32 32" width="512" xmlns="http://www.w3.org/2000/svg"><path d="m26 1h-20a5 5 0 0 0 -5 5v12a5 5 0 0 0 5 5h7v2h-6.17a2 2 0 0 0 -2 2v2a2 2 0 0 0 2 2h18.17a2 2 0 0 0 2-2v-2a2 2 0 0 0 -2-2h-6v-2h7a5 5 0 0 0 5-5v-12a5 5 0 0 0 -5-5zm-1 28h-18.17v-2h18.17zm-8-4h-2v-2h2zm12-7a3 3 0 0 1 -3 3h-20a3 3 0 0 1 -3-3v-12a3 3 0 0 1 3-3h20a3 3 0 0 1 3 3z"/><path d="m16 5a7 7 0 1 0 7 7 7 7 0 0 0 -7-7zm0 12a5 5 0 1 1 5-5 5 5 0 0 1 -5 5z"/><path d="m16 9a3 3 0 1 0 3 3 3 3 0 0 0 -3-3zm0 4a1 1 0 1 1 1-1 1 1 0 0 1 -1 1z"/></svg>