<svg id="fi_4285621" enable-background="new 0 0 499.833 499.833" height="512" viewBox="0 0 499.833 499.833" width="512" xmlns="http://www.w3.org/2000/svg"><g><path d="m73.746 358.951c1.45 1.37 3.301 2.049 5.15 2.049 1.99 0 3.977-.788 5.452-2.349 2.845-3.01 2.711-7.757-.299-10.603-1.074-1.014-2.218-2.104-3.313-3.199-21.062-21.062-36.965-48.382-47.634-81.658l52.155-2.433c4.138-.193 7.335-3.704 7.142-7.842s-3.699-7.314-7.841-7.143l-55.765 2.601c-6.163-23.579-9.946-49.843-11.305-78.722-.369-7.852-.541-15.601-.552-23.19l115.449-5.414 2.143 2.143c1.464 1.464 3.384 2.196 5.303 2.196s3.839-.732 5.303-2.196c2.929-2.93 2.929-7.678 0-10.607l-2.144-2.144 5.347-115.439c11.598.02 23.567.413 35.718 1.313 4.132.292 7.727-2.795 8.033-6.926s-2.795-7.728-6.926-8.033c-68.728-5.087-131.81 5.444-155.741 10.21-8.062 1.606-14.308 7.853-15.913 15.913-4.311 21.653-14.013 78.92-11.003 142.88 3.849 81.799 26.601 144.075 67.625 185.101 1.227 1.226 2.463 2.402 3.616 3.492zm-35.966-333.721c19.055-3.564 54.163-8.989 95.533-10.046l-4.673 100.905zm-10.606 10.608 90.867 90.867-100.916 4.732c1.072-41.614 6.553-76.888 10.049-95.599z"></path><path d="m417.704 299.85c.066.002.132.003.198.003 4.052 0 7.388-3.231 7.494-7.307 1.14-44.147-2.805-84.237-11.725-119.155-1.025-4.013-5.109-6.435-9.123-5.41-4.013 1.025-6.436 5.109-5.41 9.123 8.578 33.578 12.367 72.289 11.263 115.056-.108 4.14 3.162 7.583 7.303 7.69z"></path><path d="m495.701 483.151-83.927-83.928c1.625-2.798 2.811-5.876 3.419-9.152 2.667-14.366 6.306-37.341 8.502-65.201.325-4.129-2.758-7.74-6.888-8.065-4.128-.32-7.74 2.759-8.066 6.888-2.145 27.211-5.695 49.628-8.296 63.642-.029.155-.069.305-.103.458l-32.795-32.795 8.034-170.411c.195-4.138-3.001-7.65-7.139-7.845-4.127-.196-7.65 3.001-7.845 7.138l-7.391 156.777-97.939-97.939 9.794-211.454c23.265 7.463 43.658 17.44 60.91 29.884 1.327.957 2.861 1.418 4.381 1.418 2.328 0 4.624-1.081 6.089-3.113 2.423-3.359 1.664-8.048-1.696-10.471-30.559-22.041-69.94-36.842-117.05-43.989-4.093-.621-7.918 2.195-8.54 6.29s2.195 7.919 6.29 8.54c12.172 1.847 23.764 4.239 34.798 7.132l-9.329 201.411-15.077-15.078c-2.929-2.928-7.678-2.928-10.606 0-2.929 2.93-2.929 7.678 0 10.607l15.083 15.083-113.413 5.289c-4.137.193-7.335 3.704-7.142 7.842.188 4.019 3.504 7.15 7.486 7.15.118 0 .236-.003.355-.008l127.062-5.926 97.937 97.938-142.653 6.726c-4.138.194-7.333 3.707-7.139 7.845.189 4.017 3.506 7.146 7.486 7.146.119 0 .239-.003.359-.009l156.286-7.368 32.795 32.795c-.153.033-.302.074-.457.103-26.183 4.859-94.602 15.277-164.255 7.084-4.119-.485-7.841 2.458-8.325 6.572-.484 4.113 2.458 7.841 6.572 8.324 19.13 2.251 38.144 3.14 56.267 3.14 49.792 0 92.79-6.718 112.479-10.372 3.276-.608 6.354-1.793 9.152-3.418l83.928 83.928c1.464 1.464 3.384 2.196 5.303 2.196s3.839-.732 5.303-2.196c2.93-2.931 2.93-7.679.001-10.608z"></path><path d="m372.145 161.859c25.755 0 46.708-20.953 46.708-46.708 0-17.089-18.406-41.968-33.846-59.829-3.233-3.74-7.921-5.886-12.862-5.886-4.94 0-9.628 2.146-12.862 5.886-15.44 17.861-33.846 42.739-33.846 59.829 0 25.755 20.954 46.708 46.708 46.708zm-1.515-96.726c.498-.575 1.099-.696 1.516-.696s1.017.121 1.514.696c18.906 21.87 30.194 40.568 30.194 50.019 0 17.483-14.225 31.708-31.708 31.708s-31.708-14.225-31.708-31.708c-.001-9.451 11.286-28.149 30.192-50.019z"></path><path d="m177.467 135.289c-4.044 0-7.882 1.756-10.527 4.817-15.562 17.999-23.453 32.13-23.453 42 0 18.737 15.244 33.98 33.981 33.98s33.981-15.243 33.981-33.98c0-9.869-7.891-24-23.452-41.999-2.647-3.062-6.485-4.818-10.53-4.818zm.001 65.798c-10.466 0-18.981-8.515-18.981-18.98 0-4.204 4.991-14.873 18.981-31.237 13.989 16.364 18.981 27.034 18.981 31.237 0 10.465-8.515 18.98-18.981 18.98z"></path><path d="m135.345 332.465c-6.497 0-12.663 2.821-16.916 7.74-42.9 49.625-51.906 76.771-51.906 90.807 0 37.948 30.874 68.821 68.822 68.821s68.822-30.873 68.822-68.821c0-14.035-9.005-41.182-51.906-90.807-4.253-4.919-10.419-7.74-16.916-7.74zm0 152.368c-29.678 0-53.822-24.145-53.822-53.821 0-15.768 18.039-46.046 48.253-80.996 1.422-1.646 3.4-2.551 5.569-2.551s4.147.905 5.569 2.551c30.215 34.95 48.253 65.229 48.253 80.996 0 29.677-24.145 53.821-53.822 53.821z"></path></g></svg>