<?xml version="1.0" encoding="UTF-8" standalone="no"?><!DOCTYPE svg PUBLIC "-//W3C//DTD SVG 1.1//EN" "http://www.w3.org/Graphics/SVG/1.1/DTD/svg11.dtd"><svg width="100%" height="100%" viewBox="0 0 960 960" version="1.1" xmlns="http://www.w3.org/2000/svg" xmlns:xlink="http://www.w3.org/1999/xlink" xml:space="preserve" xmlns:serif="http://www.serif.com/" style="fill-rule:evenodd;clip-rule:evenodd;stroke-linejoin:round;stroke-miterlimit:2;"><path d="M290.154,42.971c2.388,-1.807 4.482,-3.322 6.309,-4.578l0.024,-0.261c0.42,-4.483 3.782,-8.133 8.216,-8.917c111.531,-19.721 226.469,-18.486 343.871,-2.021c2.777,0.39 5.262,1.927 6.851,4.236l2.808,4.084l7.719,4.972c0.576,0.371 1.113,0.801 1.601,1.282c0,-0 2.854,2.81 2.853,2.81c12.018,2.996 17.493,10.449 18.531,20.597c0.028,0.277 0.045,0.555 0.05,0.833l2.725,147.749c0.005,0.295 -0.003,0.589 -0.023,0.883c-0.552,7.895 -3.732,12.947 -8.476,15.976c-0.905,1.234 -1.829,2.215 -2.736,3.012l-3.177,2.183l-3.499,1.308c-0.44,0.105 -0.887,0.181 -1.337,0.226l-0.006,0.945c-0.037,5.501 -4.51,9.939 -10.01,9.933l-367.935,-0.384c-5.405,-0.006 -9.828,-4.306 -9.985,-9.71c0,0 -0.023,-0.794 -0.023,-0.794l-2.469,-0.637c-0.307,-0.079 -0.611,-0.173 -0.909,-0.281l-5.053,-2.834l-2.141,-2.078l-1.721,-2.389c-1.606,-2.691 -2.661,-6.116 -2.775,-10.378c-0.001,-0.054 -0.002,-0.107 -0.003,-0.161l-1.638,-155.209c-0.008,-0.781 0.075,-1.559 0.248,-2.321l0.966,-2.934l1.696,-2.932l2.371,-2.565l2.8,-1.974c0.435,-0.247 0.888,-0.462 1.355,-0.641l7.174,-2.76c0,0 5.718,-4.248 5.748,-4.27Zm-2.315,24.378l1.59,150.601l7.349,1.894c3.857,0.994 6.71,4.162 7.363,8.005l348.384,0.364l0.005,-0.721c0.036,-5.425 4.391,-9.831 9.815,-9.931l5.541,-0.102c0.939,-1.399 2.217,-2.539 3.715,-3.312c0.036,-0.181 0.075,-0.395 0.103,-0.597c0,-0 -2.703,-146.628 -2.704,-146.634c-0.372,-2.066 -2.332,-2.813 -5.173,-3.29c-2.026,-0.34 -3.897,-1.296 -5.361,-2.737l-4.211,-4.148l-8.539,-5.5c-1.114,-0.717 -2.074,-1.649 -2.824,-2.74c-0,-0 -1.447,-2.104 -1.448,-2.104c-111.251,-15.248 -220.235,-16.554 -326.119,1.28c-0.792,2.101 -2.279,3.901 -4.255,5.073c-2.158,1.28 -5.046,3.293 -8.854,6.174c-0.023,0.018 -0.047,0.036 -0.071,0.054l-6.909,5.133c-0.728,0.541 -1.527,0.98 -2.374,1.306l-5.023,1.932Z"/><path d="M563.336,296.906c5.519,0.021 9.983,4.519 9.962,10.038c-0.021,5.519 -4.519,9.983 -10.038,9.962l-178.879,-0.68c-5.519,-0.021 -9.983,-4.519 -9.962,-10.038c0.021,-5.52 4.519,-9.983 10.038,-9.962l178.879,0.68Zm-222.2,5.286c5.49,-0.568 10.408,3.428 10.976,8.918c0.568,5.49 -3.428,10.408 -8.918,10.976l-30.785,3.184l-9.561,3.286l-8.26,7.704c0,0 10.274,142.98 10.275,142.98c5.261,3.019 13.849,5.358 24.699,7.62c35.801,7.463 94.086,10.753 152.139,10.34c58.066,-0.413 115.909,-4.534 150.81,-12.148c10.3,-2.248 18.398,-4.447 23.248,-7.233l7.292,-140.914l-9.972,-9.389l-25.782,-6.307c-5.361,-1.312 -8.649,-6.729 -7.337,-12.09c1.311,-5.361 6.728,-8.649 12.09,-7.337l28.341,6.934c1.678,0.41 3.221,1.248 4.478,2.432l15.263,14.369c2.138,2.013 3.284,4.864 3.132,7.797l-7.773,150.211c-0.133,2.562 -1.245,4.975 -3.107,6.74c-5.585,5.296 -17.998,10.485 -35.61,14.327c-35.856,7.823 -95.274,12.183 -154.93,12.608c-59.669,0.424 -119.566,-3.09 -156.363,-10.761c-17.881,-3.727 -30.747,-8.866 -36.922,-14.383c-1.938,-1.731 -3.125,-4.148 -3.312,-6.74l-10.95,-152.391c-0.217,-3.015 0.942,-5.967 3.153,-8.029l13.313,-12.418c1.027,-0.957 2.243,-1.688 3.571,-2.144l12.657,-4.35c0.719,-0.247 1.465,-0.412 2.221,-0.49l31.924,-3.302Zm263.022,-2.124c5.511,0.309 9.734,5.034 9.425,10.544c-0.309,5.511 -5.034,9.734 -10.544,9.425l-14.588,-0.818c-5.51,-0.309 -9.734,-5.033 -9.425,-10.544c0.309,-5.51 5.034,-9.733 10.544,-9.424l14.588,0.817Z"/><path d="M351.411,310.135c-0.109,5.518 -4.676,9.91 -10.194,9.802c-5.519,-0.108 -9.911,-4.676 -9.803,-10.194l1.406,-71.761c0.109,-5.519 4.676,-9.911 10.194,-9.803c5.519,0.108 9.911,4.676 9.803,10.194l-1.406,71.762Z"/><path d="M394.208,323.727c0.123,5.518 -4.258,10.097 -9.775,10.22c-5.518,0.123 -10.098,-4.257 -10.22,-9.775l-1.903,-85.501c-0.123,-5.518 4.257,-10.097 9.775,-10.22c5.518,-0.123 10.097,4.257 10.22,9.775l1.903,85.501Z"/><path d="M573.283,307.074c-0.153,5.517 -4.757,9.871 -10.274,9.717c-5.517,-0.153 -9.872,-4.757 -9.718,-10.274l1.889,-67.832c0.154,-5.517 4.758,-9.871 10.275,-9.718c5.517,0.154 9.871,4.758 9.718,10.275l-1.89,67.832Z"/><path d="M598.931,308.922c0.096,5.518 -4.307,10.076 -9.825,10.172c-5.518,0.095 -10.076,-4.307 -10.172,-9.825l-1.227,-70.798c-0.095,-5.518 4.307,-10.076 9.826,-10.172c5.518,-0.095 10.076,4.307 10.171,9.826l1.227,70.797Z"/><path d="M613.467,322.008c-0.138,5.517 -4.73,9.884 -10.247,9.746c-5.518,-0.139 -9.885,-4.731 -9.746,-10.248l2.098,-83.56c0.139,-5.518 4.731,-9.885 10.248,-9.746c5.517,0.139 9.884,4.731 9.746,10.248l-2.099,83.56Z"/><path d="M639.417,318.754c0,5.519 -4.48,10 -9.999,10.001c-5.52,0 -10.001,-4.48 -10.001,-9.999l-0.007,-80.227c-0,-5.519 4.48,-10.001 10,-10.001c5.519,-0 10,4.48 10,9.999l0.007,80.227Z"/><path d="M326.851,685.481c0.031,0.637 0.132,1.22 0.291,1.766c0.079,0.274 0.147,0.551 0.203,0.831c0.472,2.364 1.678,5.072 2.936,7.981c0.939,1.053 1.922,2.045 2.961,2.969l6.441,4.327c2.953,1.984 4.629,5.388 4.403,8.938c-0.227,3.55 -2.323,6.713 -5.504,8.305c-1.241,0.621 -2.702,1.74 -4.559,3.38c-0.655,0.767 -1.291,1.662 -1.569,2.062c-0.176,1.598 -0.032,3.126 0.59,4.558c0.096,0.221 0.184,0.445 0.264,0.672c0.495,1.412 1.795,2.946 3.554,4.817c2.595,1.844 4.571,3.385 8.208,5.046c4.704,2.147 9.831,4.529 15.948,6.038c0.204,0.051 0.407,0.108 0.607,0.171c20.603,6.484 33.774,7.532 42.569,8.83l0.018,0.003c20.972,3.134 42.413,4.389 64.124,4.576c0.016,0 0.033,0.001 0.05,0.001c23.611,0.321 46.736,-0.401 69.122,-2.729c19.853,-2.931 39.158,-6.751 58.016,-10.933c8.717,-2.87 17.063,-6.385 24.614,-11.588c1.19,-0.845 2.305,-1.807 3.339,-2.902c0.469,-1.201 0.833,-2.395 1.013,-3.59c0.033,-0.213 0.072,-0.424 0.117,-0.635c0.258,-1.181 0.347,-2.424 0.272,-3.738c-0.098,-0.345 -0.235,-0.677 -0.42,-0.993l-6.601,-5.537c-2.482,-2.083 -3.801,-5.238 -3.54,-8.467c0.261,-3.229 2.07,-6.132 4.855,-7.788l6.548,-3.896c0.014,-0.009 0.029,-0.017 0.043,-0.026c1.143,-0.672 2.213,-1.496 3.22,-2.465c0.644,-1.318 1.106,-2.842 1.207,-4.407c0.017,-0.261 0.044,-0.521 0.081,-0.78c0.156,-1.085 0.199,-2.171 0.185,-3.262c-0.253,-0.737 -0.677,-1.39 -1.197,-2.008l-9.068,-10.028c-2.092,-2.313 -2.985,-5.469 -2.415,-8.535c0.57,-3.066 2.538,-5.69 5.321,-7.097l7.005,-3.541c0.203,-0.103 0.409,-0.198 0.618,-0.286c1.746,-0.738 3.01,-2.082 4.067,-3.726c0.492,-2.762 0.601,-5.747 0.567,-8.619l-10.199,-9.288c-2.565,-2.335 -3.736,-5.832 -3.096,-9.24c0.641,-3.408 3.001,-6.241 6.237,-7.487c3.669,-1.411 7.436,-3.569 11.523,-7.389c0.512,-2.353 0.77,-4.721 0.809,-7.115c-0.104,-1.308 -0.72,-2.285 -1.658,-3.048c-0.197,-0.16 -0.387,-0.327 -0.571,-0.501l-14.524,-13.767c-2.685,-2.545 -3.746,-6.365 -2.757,-9.93c0.988,-3.565 3.864,-6.293 7.476,-7.092c4.494,-0.994 8.406,-2.249 11.65,-3.869c2.042,-1.019 3.785,-2.156 5.147,-3.513c0.646,-1.16 1.014,-2.346 1.218,-3.542c0.056,-0.326 0.128,-0.649 0.216,-0.967c0.208,-0.759 0.224,-1.745 0.145,-3.019c-0.229,-0.326 -0.52,-0.602 -0.825,-0.865c-0.173,-0.15 -0.341,-0.305 -0.503,-0.466l-45.684,-45.25c-3.922,-3.884 -3.952,-10.221 -0.068,-14.142c3.884,-3.921 10.221,-3.951 14.142,-0.067c0,-0 45.467,45.035 45.46,45.028c3.083,2.733 5.447,6.037 6.809,10.157c0.241,0.727 0.397,1.48 0.466,2.244c0.443,4.936 0.122,8.539 -0.52,11.149c-0.705,3.831 -2.076,7.604 -4.483,11.295c-0.271,0.414 -0.571,0.808 -0.9,1.178c-2.887,3.25 -6.644,6.102 -11.29,8.474c1.394,1.321 2.33,2.208 2.327,2.206c5.244,4.383 8.423,10.108 8.723,17.714c0.006,0.16 0.009,0.321 0.007,0.481c-0.044,5.116 -0.75,10.188 -2.219,15.211c-0.456,1.558 -1.284,2.981 -2.413,4.147c-2.465,2.546 -4.86,4.673 -7.199,6.467l3.153,2.871c1.969,1.793 3.141,4.298 3.257,6.958c0.269,6.162 0.211,13.379 -1.235,19.542c-0.209,0.894 -0.541,1.754 -0.986,2.558c-2.465,4.453 -5.552,8.102 -9.351,10.791l0.552,0.611c0.055,0.06 0.109,0.122 0.162,0.184c2.964,3.443 4.985,7.349 5.877,11.804c0.105,0.521 0.167,1.049 0.188,1.579c0.096,2.497 0.034,4.993 -0.297,7.473c-0.395,5.046 -2.106,9.933 -4.432,13.846c-0.365,0.615 -0.796,1.189 -1.284,1.713c-1.205,1.292 -2.462,2.475 -3.769,3.553c2.036,2.876 3.315,6.012 3.972,9.363c0.065,0.333 0.113,0.669 0.144,1.006c0.329,3.574 0.122,6.941 -0.535,10.086c-0.522,3.23 -1.574,6.49 -3.024,9.75c-0.377,0.848 -0.87,1.639 -1.466,2.351c-2.44,2.918 -5.163,5.393 -8.129,7.486c-0.029,0.02 -0.057,0.04 -0.086,0.059c-9.255,6.387 -19.494,10.793 -30.241,14.299c-0.307,0.1 -0.618,0.185 -0.933,0.255c-19.537,4.341 -39.545,8.302 -60.128,11.333c-0.139,0.021 -0.279,0.038 -0.419,0.053c-23.2,2.423 -47.173,3.188 -71.653,2.856c-22.64,-0.196 -44.998,-1.525 -66.869,-4.793c-9.393,-1.386 -23.426,-2.572 -45.345,-9.443c-7.32,-1.84 -13.508,-4.607 -19.161,-7.188c-5.376,-2.455 -8.107,-4.593 -12.177,-7.423c-0.55,-0.383 -1.06,-0.819 -1.522,-1.304c-4.477,-4.686 -7.209,-8.908 -8.482,-12.309c-1.944,-4.604 -2.583,-9.485 -1.991,-14.579c0.211,-2.892 1.393,-6.799 5.319,-11.651c-1.353,-1.334 -2.647,-2.748 -3.889,-4.234c-0.634,-0.759 -1.152,-1.608 -1.537,-2.519c-1.976,-4.676 -3.842,-9.121 -4.657,-12.865c-0.898,-3.254 -1.301,-6.903 -0.725,-11.283c0.056,-0.427 0.14,-0.85 0.25,-1.266l1.021,-2.833l1.5,-2.626c0,0 1.97,-2.054 3.12,-3.264c-2.3,-1.929 -4.293,-4.106 -6.073,-6.459c-0.353,-0.467 -0.664,-0.964 -0.93,-1.486c-2.001,-3.923 -3.494,-7.793 -4.444,-11.569c-1.251,-4.359 -1.413,-9.301 0.06,-14.96c0.493,-1.896 1.532,-3.606 2.989,-4.916l3.712,-3.34c-3.398,-2.221 -6.422,-5.329 -9.117,-9.003c-0.37,-0.504 -0.691,-1.041 -0.96,-1.604c-3.184,-6.663 -4.31,-13.597 -3.65,-20.769c0.218,-2.376 1.279,-4.596 2.991,-6.258l9.68,-9.402l-4.155,-1.929c-0.575,-0.267 -1.123,-0.588 -1.637,-0.958c-4.071,-2.935 -7.097,-7.154 -8.989,-12.569c-2.005,-5.321 -2.693,-11.148 -1.638,-17.611c0.338,-2.07 1.318,-3.98 2.801,-5.462c18.267,-18.257 35.678,-34.661 52.196,-49.151c4.149,-3.64 10.472,-3.226 14.112,0.923c3.639,4.149 3.226,10.472 -0.923,14.112c-15.439,13.543 -31.669,28.791 -48.666,45.689c0.028,1.596 0.316,3.093 0.854,4.502c0.039,0.103 0.077,0.207 0.113,0.311c0.35,1.017 0.729,1.941 1.36,2.613l16.174,7.508c2.985,1.386 5.098,4.152 5.648,7.397c0.551,3.245 -0.53,6.554 -2.891,8.847c-0,-0 -17.158,16.665 -17.158,16.665c0.144,2.085 0.618,4.127 1.465,6.122c1.12,1.472 2.285,2.783 3.756,3.534c0.325,0.166 0.641,0.349 0.946,0.55l9.571,6.287c2.592,1.702 4.247,4.51 4.481,7.601c0.235,3.092 -0.977,6.117 -3.282,8.191c-0,-0 -10.834,9.747 -10.834,9.748c-0.015,0.659 0.055,1.278 0.229,1.863c0.044,0.149 0.085,0.299 0.123,0.451c0.542,2.196 1.392,4.421 2.495,6.687c0.805,0.995 1.689,1.925 2.718,2.745l9.115,5.838c2.719,1.741 4.43,4.687 4.594,7.911c0.165,3.224 -1.237,6.329 -3.764,8.338l-9.214,7.324Z"/><path d="M367.888,769.85c-4.711,-2.876 -6.2,-9.035 -3.324,-13.746c2.876,-4.71 9.035,-6.2 13.746,-3.324l11.873,7.25c2.655,1.621 4.404,4.385 4.733,7.478c-0,-0 15.204,143.064 15.204,143.064c7.861,5.578 17.024,9.576 27.498,12.016c20.225,3.847 41.369,4.65 63.517,2.154c0.166,-0.019 0.332,-0.034 0.499,-0.044c14.535,-0.904 28.671,-4.957 42.427,-12.093c1.457,-2.72 2.721,-5.399 3.74,-8.037l12.482,-135.969c0.268,-2.918 1.802,-5.572 4.198,-7.26l13.08,-9.217c4.511,-3.179 10.755,-2.098 13.934,2.414c3.179,4.512 2.098,10.755 -2.414,13.935l-9.304,6.556l-12.182,132.699c-0.077,0.846 -0.263,1.679 -0.551,2.478c-1.735,4.813 -4.109,9.761 -6.99,14.799c-0.917,1.602 -2.258,2.919 -3.877,3.806c-17.166,9.403 -34.855,14.665 -53.047,15.834c-24.22,2.706 -47.342,1.782 -69.459,-2.447c-0.125,-0.024 -0.249,-0.05 -0.372,-0.079c-15.155,-3.499 -28.094,-9.686 -38.928,-18.388c-2.075,-1.667 -3.4,-4.092 -3.682,-6.739l-15.14,-142.462l-7.661,-4.678Z"/><path d="M324.126,581.57c-2.697,-0.583 -4.413,-3.246 -3.83,-5.943c0.583,-2.698 3.246,-4.414 5.944,-3.831c99.641,21.542 228.72,16.935 303.689,-0.812c2.685,-0.635 5.381,1.029 6.017,3.714c0.636,2.685 -1.028,5.382 -3.714,6.017c-76.058,18.005 -207.015,22.711 -308.106,0.855Z"/><path d="M323.563,630.335c-2.672,-0.689 -4.283,-3.418 -3.594,-6.09c0.689,-2.673 3.418,-4.283 6.09,-3.594c86.199,22.225 202.747,23.426 305.126,-0.984c2.685,-0.64 5.384,1.02 6.024,3.704c0.64,2.685 -1.02,5.384 -3.704,6.024c-103.996,24.794 -222.383,23.515 -309.942,0.94Z"/><path d="M626.131,661.957c2.632,-0.829 5.442,0.636 6.27,3.268c0.829,2.632 -0.636,5.442 -3.268,6.271c-85.439,26.894 -231.539,24.914 -300.687,2.327c-2.623,-0.857 -4.057,-3.683 -3.2,-6.306c0.857,-2.623 3.682,-4.057 6.305,-3.2c67.743,22.128 210.876,23.988 294.58,-2.36Z"/><path d="M332.443,714.733c-2.597,-0.933 -3.947,-3.799 -3.014,-6.396c0.934,-2.597 3.8,-3.948 6.397,-3.014c43.968,15.804 93.719,21.736 143.512,21.831c51.349,0.098 102.506,-6.769 143.146,-23.575c2.55,-1.055 5.477,0.159 6.531,2.71c1.055,2.55 -0.159,5.476 -2.709,6.531c-41.737,17.259 -94.254,24.435 -146.987,24.334c-50.964,-0.098 -101.873,-6.245 -146.876,-22.421Z"/><path d="M440.774,932.302c0.126,2.757 -2.011,5.097 -4.768,5.222c-2.756,0.125 -5.096,-2.011 -5.221,-4.768l-7.43,-163.689c-0.126,-2.757 2.011,-5.097 4.768,-5.222c2.756,-0.125 5.096,2.012 5.221,4.768l7.43,163.689Z"/><path d="M507.279,934.716c-0.072,2.759 -2.37,4.94 -5.129,4.868c-2.758,-0.072 -4.939,-2.371 -4.867,-5.129l4.29,-164.283c0.072,-2.759 2.37,-4.94 5.129,-4.868c2.758,0.072 4.939,2.37 4.867,5.129l-4.29,164.283Z"/><path d="M285.762,357.064c-2.743,-0.296 -4.731,-2.763 -4.435,-5.507c0.295,-2.744 2.763,-4.731 5.506,-4.436c18.143,1.955 33.527,4.688 51.723,5.972c45.588,3.215 94.132,3.419 140.042,4.159c68.008,1.095 141.796,0.394 192.915,-10.612c2.697,-0.581 5.359,1.137 5.94,3.835c0.581,2.698 -1.138,5.36 -3.835,5.941c-51.721,11.135 -126.373,11.942 -195.181,10.834c-46.088,-0.742 -94.82,-0.955 -140.584,-4.182c-18.326,-1.292 -33.819,-4.036 -52.091,-6.004Z"/><path d="M315.699,320.63c0.408,-0.086 0.942,-0.207 1.378,-0.342c2.267,-0.698 4.975,-1.922 8.318,-3.625c1.495,-0.762 3.158,-1.135 4.836,-1.085l70.27,2.089c1.962,0.058 3.863,0.693 5.467,1.824c9.708,6.848 17.409,10.313 24.691,9.874c7.035,-0.423 13.238,-4.567 20.234,-11.064c1.833,-1.703 4.239,-2.657 6.741,-2.673l88.209,-0.56c1.972,-0.012 3.903,0.558 5.551,1.64c10.057,6.6 17.482,10.425 24.525,9.273c4.158,-0.68 7.878,-3.286 11.944,-7.395c1.756,-1.775 4.113,-2.829 6.606,-2.954l39.451,-1.981l21.275,-3.749c5.436,-0.958 10.626,2.678 11.584,8.113c0.958,5.435 -2.678,10.626 -8.113,11.584l-21.888,3.856c-0.408,0.072 -0.82,0.118 -1.234,0.139c0,0 -36.37,1.827 -36.369,1.827c-6.64,5.941 -13.208,9.182 -20.027,10.297c-10.304,1.686 -21.778,-1.648 -36.141,-10.632c0,0 -81.467,0.518 -81.467,0.517c-9.988,8.573 -19.537,13.116 -29.679,13.726c-10.254,0.618 -21.495,-2.808 -34.893,-11.758c0,-0 -64.85,-1.928 -64.849,-1.929c-12.486,5.926 -19.972,5.822 -25.139,3.325c-4.126,-1.994 -7.673,-5.844 -10.889,-12.294c-2.462,-4.939 -0.452,-10.948 4.487,-13.411c4.94,-2.463 10.949,-0.452 13.412,4.487c0.492,0.987 1.251,2.184 1.709,2.881Z"/><path d="M284.072,226.331c-2.76,-0.001 -5,-2.242 -4.999,-5.002c0.001,-2.759 2.243,-4.999 5.002,-4.998l390.926,0.133c2.76,0.001 5,2.242 4.999,5.002c-0.001,2.759 -2.242,4.999 -5.002,4.998l-390.926,-0.133Z"/><path d="M291.798,60.083c-2.741,0.32 -5.226,-1.645 -5.547,-4.386c-0.32,-2.741 1.645,-5.226 4.386,-5.546c108.618,-12.7 240.787,-11.441 376.613,1.043c2.748,0.253 4.774,2.689 4.522,5.437c-0.253,2.748 -2.689,4.774 -5.437,4.521c-135.077,-12.415 -266.518,-13.698 -374.537,-1.069Z"/><path d="M347.666,240.151c0.067,-5.519 4.601,-9.946 10.12,-9.879c5.518,0.066 9.945,4.601 9.879,10.119l-1.02,84.718c-0.066,5.519 -4.6,9.945 -10.119,9.879c-5.519,-0.067 -9.945,-4.601 -9.879,-10.12l1.019,-84.717Z"/><path d="M561.727,311.769c-1.377,-0.083 -2.428,-1.269 -2.345,-2.646c0.083,-1.377 1.269,-2.428 2.646,-2.345c9.762,0.588 19.218,1.377 28.288,2.418c1.37,0.158 2.356,1.398 2.198,2.769c-0.157,1.371 -1.398,2.356 -2.769,2.199c-8.983,-1.031 -18.349,-1.812 -28.018,-2.395Z"/><path d="M341.27,317.287c-1.355,0.262 -2.667,-0.625 -2.93,-1.979c-0.262,-1.355 0.625,-2.668 1.98,-2.93l14.607,-2.828c1.354,-0.262 2.667,0.624 2.929,1.979c0.262,1.355 -0.624,2.667 -1.979,2.93l-14.607,2.828Z"/></svg>