<svg id="Dew" enable-background="new 0 0 64 64" viewBox="0 0 64 64" xmlns="http://www.w3.org/2000/svg"><path d="m63.111 52.7066h-.00177c-3.48414-.00085-7.78543-.32917-12.5138-1.40011 2.61205-5.91589 1.68576-15.85561-3.26752-23.29692.89309-.80654 1.65293-1.7808 2.22728-2.90686 1.51584-2.96918 1.53317-6.51136.04517-9.47706l-6.0426-12.0365c-.55732-1.10952-1.6738-1.79795-2.91357-1.79886h-.00177c-1.23977 0-2.35448.68672-2.91187 1.79368l-6.05469 12.01477c-.15113.29993-.27595.60933-.39631.91988-1.38461-.56275-2.7644-1.10055-4.1003-1.60983-1.65-.64003-3.22004-1.24002-4.64011-1.85001-6.76009-2.91009-10.09017-5.58013-12.29023-7.35019-2.03008-1.63005-3.38008-2.71003-5.57012-2.28003-4.24008.83003-4.91008 8.17015-4.62009 20.56041.02002.95003.65998 23.25047 12.69026 32.25066 6.20014 4.6301 12.20026 5.97009 17.08036 5.97009 1.85001 0 3.54005-.19995 5.02006-.47999 3.69007-.70003 6.91018-2.08006 9.47022-3.73006 2.46294-1.57169 4.311-3.38074 5.40325-5.06028 5.01329 1.18277 9.57557 1.5452 13.2579 1.5452.55391-.00171 1.02095-.3559 1.01925-.89071-.00177-.4914-.39936-.88728-.889-.88728zm-29.84814-36.30738 6.05469-12.01477c.25702-.51136.75185-.81612 1.32486-.81612s1.06789.30646 1.32486.81783l6.04254 12.0365c1.23629 2.46215 1.22243 5.40441-.03821 7.87095-1.19461 2.34148-3.32685 3.91982-5.85327 4.33218-.96541.15802-1.98985.15717-2.95703 0-2.53161-.41065-4.67081-1.99247-5.86804-4.33999-1.26059-2.47259-1.27188-5.42095-.0304-7.88658zm1.25656 43.59048c-5.02012.95003-12.68025.82002-20.70043-5.1801-9.08021-6.78016-11.81024-23.15049-11.99024-30.86061-.13001-5.86016-.41004-18.07037 3.20008-18.7704.19996-.03998.38996-.06.57997-.06 1.00002 0 1.82004.59999 3.5301 1.98002 2.28001 1.82004 5.71008 4.58011 12.70027 7.59018 1.44003.62001 3.03003 1.23001 4.70005 1.88004 1.38266.5279 2.80957 1.08565 4.24111 1.67331-.45881 2.29637-.15766 4.71982.92934 6.85103 1.45682 2.85803 4.06918 4.78543 7.16689 5.28807.57991.09381 1.1755.14154 1.76933.14154.59211 0 1.18423-.04773 1.76065-.14154 1.26431-.20679 2.44054-.66249 3.49714-1.31076 4.89347 7.37332 5.19242 16.96134 2.94043 21.81001-3.38984-.88484-6.96657-2.15983-10.60123-3.98049-.3014-1.92863-.50929-7.09512-.04181-10.51529.06775-.48615-.2743-.93416-.76051-1.001-.47578-.06512-.93416.27436-1.00014.76137-.41261 3.02002-.32727 7.21712-.09967 9.7524-1.03103-.56898-2.0637-1.16787-3.09699-1.83109-2.19011-1.40579-4.26791-2.99542-6.24128-4.71384-.25037-2.24974-.3913-4.53378-.40119-6.79738-.00604-1.29965.02869-2.60973.10248-3.89553.02863-.49049-.34644-.91072-.83608-.93849-.48274-.02692-.91072.34553-.9385.83607-.07642 1.32223-.112 2.66961-.1059 4.00576.00708 1.66965.10248 3.34638.23755 5.0175-3.48255-3.339-6.55476-7.13418-9.06354-11.28661-.25434-.42023-.80043-.55915-1.22067-.30042-.42017.25355-.55476.79958-.30036 1.22067 2.52874 4.18557 5.6148 8.01859 9.10663 11.4077-1.33413-.13532-2.67047-.2367-4.00002-.26978-1.5358-.03644-3.09418-.00696-4.62393.08679-.48963.03125-.86208.4532-.83168.94289.0304.48964.44013.87508.94283.83168 1.47855-.09204 2.98132-.11982 4.46854-.08332 2.09025.05225 4.20315.2425 6.28535.55299 2.04197 1.77927 4.19253 3.425 6.45954 4.8801.78957.50673 1.57907.98018 2.36791 1.43332-.57734.11407-1.15444.23096-1.72196.37244-2.20518.54701-4.37216 1.30404-6.44276 2.25383-.44624.20313-.64247.73103-.43757 1.17727.1493.32642.4723.51918.80916.51918.12323 0 .24915-.02606.36982-.08161 1.96903-.9012 4.03096-1.6235 6.1294-2.14268 1.26498-.31525 2.5606-.55104 3.85555-.72066 3.65169 1.85154 7.2518 3.17188 10.67313 4.10024-2.17864 2.91104-7.04922 6.31101-13.36679 7.5152z"/></svg>