<?xml version="1.0" encoding="UTF-8" standalone="no"?>
<svg
   xmlns:dc="http://purl.org/dc/elements/1.1/"
   xmlns:cc="http://creativecommons.org/ns#"
   xmlns:rdf="http://www.w3.org/1999/02/22-rdf-syntax-ns#"
   xmlns:svg="http://www.w3.org/2000/svg"
   xmlns="http://www.w3.org/2000/svg"
   xmlns:sodipodi="http://sodipodi.sourceforge.net/DTD/sodipodi-0.dtd"
   xmlns:inkscape="http://www.inkscape.org/namespaces/inkscape"
   id="_x30_7_Lightning_1_"
   enable-background="new 0 0 512 512"
   height="512"
   viewBox="0 0 512 512"
   width="512"
   version="1.1"
   sodipodi:docname="lightning_distance.svg"
   inkscape:version="1.0.2 (e86c870879, 2021-01-15, custom)">
  <metadata
     id="metadata20">
    <rdf:RDF>
      <cc:Work
         rdf:about="">
        <dc:format>image/svg+xml</dc:format>
        <dc:type
           rdf:resource="http://purl.org/dc/dcmitype/StillImage" />
        <dc:title></dc:title>
      </cc:Work>
    </rdf:RDF>
  </metadata>
  <defs
     id="defs18" />
  <sodipodi:namedview
     pagecolor="#ffffff"
     bordercolor="#666666"
     borderopacity="1"
     objecttolerance="10"
     gridtolerance="10"
     guidetolerance="10"
     inkscape:pageopacity="0"
     inkscape:pageshadow="2"
     inkscape:window-width="3840"
     inkscape:window-height="2066"
     id="namedview16"
     showgrid="false"
     inkscape:zoom="1.96875"
     inkscape:cx="256"
     inkscape:cy="256"
     inkscape:window-x="-11"
     inkscape:window-y="-11"
     inkscape:window-maximized="1"
     inkscape:current-layer="_x30_7_Lightning_1_" />
  <g
     id="_x30_7_Lightning">
    <g
       id="g12">
      <g
         id="g10">
        <g
           id="g4">
          <path
             d="m474.6 141.5c-18.2-11.1-39.3-14.2-59.2-9.2-.2-21-7.6-41.5-21.3-57.9-17.6-21.2-43.5-33.4-71-33.4-14.3 0-28.2 3.3-40.8 9.5-18.4-31-52.2-50.5-89-50.5-30.2 0-58 12.7-78.5 35.9-15.9 18-25.1 40.4-25.8 61.8-47 2.2-89 41.8-89 94.1 0 51.9 42.2 94.1 94.1 94.1h74.9l-36.4 64.6c-1.9 3.3-1.8 7.3.1 10.6s5.4 5.3 9.2 5.3h71.9l-75.3 129.6c-2.6 4.5-1.6 10.3 2.4 13.6s9.9 3.3 13.8-.2l216.6-188.3c3.4-2.9 4.6-7.6 3-11.8s-5.5-6.9-10-6.9h-74.8l9.5-16.4h135.2c42.9 0 77.8-34.9 77.8-77.8 0-27.6-14-52.5-37.4-66.7zm-138.8 182.2-146.5 127.3 52.3-89.9c1.9-3.3 1.9-7.4 0-10.7s-5.4-5.3-9.2-5.3h-72.2l62.5-110.9h81.7l-42.5 73.5c-1.9 3.3-1.9 7.4 0 10.7s5.4 5.3 9.2 5.3zm98.4-59.1h-122.9l20.7-35.8c1.9-3.3 1.9-7.4 0-10.7s-5.4-5.3-9.2-5.3h-106.4c-3.8 0-7.4 2.1-9.3 5.4l-26.1 46.4h-86.9c-40.1 0-72.8-32.6-72.8-72.8 0-43.8 38.2-76.2 77.8-72.6 3.3.3 6.4-.9 8.6-3.2s3.3-5.5 2.9-8.7c-2.4-18.9 5.1-40.3 20.1-57.3 16.3-18.5 38.5-28.7 62.5-28.7 32.4 0 61.9 19 75.1 48.3 1.3 2.9 3.8 5 6.8 5.9s6.3.3 8.9-1.4c11.5-7.7 25-11.8 39.1-11.8 21.1 0 41.1 9.4 54.6 25.7 13.5 16.2 19 37.4 15.1 58.2-.7 4 .9 8.1 4.1 10.5 3.3 2.4 7.6 2.8 11.3.9 17.5-9.1 38.1-8.3 55.2 2.1 17 10.3 27.1 28.4 27.1 48.4.2 31.2-25.2 56.5-56.3 56.5z"
             id="path2" />
        </g>
        <g
           id="g8">
          <path
             d="m193.3 42.7c-34 0-60.9 27.1-61.3 61.7-.1 5.9 4.7 10.7 10.5 10.8h.1c5.8 0 10.6-4.7 10.7-10.6.3-22.8 17.8-40.6 40-40.6 5.9 0 10.7-4.8 10.7-10.7s-4.9-10.6-10.7-10.6z"
             id="path6" />
        </g>
      </g>
    </g>
  </g>
  <rect
     style="fill:#ffffff;stroke:#000000;stroke-width:18.8976378;stroke-linecap:square;stroke-dashoffset:1;paint-order:stroke fill markers;stroke-miterlimit:4;stroke-dasharray:none"
     id="rect859"
     width="1.015873"
     height="174.73016"
     x="-18.285715"
     y="308.82541"
     rx="1.11391"
     ry="1.11391"
     transform="scale(-1,1)" />
  <rect
     style="fill:#ffffff;stroke:#000000;stroke-width:18.8976;stroke-linecap:square;stroke-miterlimit:4;stroke-dasharray:none;stroke-dashoffset:1;paint-order:stroke fill markers"
     id="rect859-6"
     width="1.015873"
     height="174.73016"
     x="-482.03174"
     y="309.33334"
     rx="1.11391"
     ry="1.11391"
     transform="scale(-1,1)" />
  <text
     xml:space="preserve"
     style="font-style:normal;font-weight:normal;font-size:40px;line-height:1.25;font-family:sans-serif;letter-spacing:0px;word-spacing:0px;fill:#000000;fill-opacity:1;stroke:none"
     x="272.25397"
     y="485.58728"
     id="text903"><tspan
       sodipodi:role="line"
       id="tspan901"
       x="272.25397"
       y="485.58728"
       style="font-style:normal;font-variant:normal;font-weight:bold;font-stretch:normal;font-size:96px;font-family:sans-serif;-inkscape-font-specification:'sans-serif, Bold';font-variant-ligatures:normal;font-variant-caps:normal;font-variant-numeric:normal;font-variant-east-asian:normal">km</tspan></text>
</svg>
