<svg height="512pt" viewBox="0 0 512 512" width="512pt" xmlns="http://www.w3.org/2000/svg"><path d="m488.457031 0h-13.832031c-12.871094 0-23.34375 10.472656-23.34375 23.34375v65.574219h-94.984375v-5.753907c0-20.132812-16.378906-36.511718-36.511719-36.511718-20.132812 0-36.511718 16.378906-36.511718 36.511718v5.753907h-19.847657v-5.753907c0-20.132812-16.378906-36.511718-36.511719-36.511718-20.128906 0-36.507812 16.378906-36.507812 36.511718v5.753907h-19.847656v-5.753907c0-20.132812-16.378906-36.511718-36.511719-36.511718s-36.511719 16.378906-36.511719 36.511718v5.753907h-37.019531v-65.574219c0-12.871094-10.46875-23.34375-23.339844-23.34375h-13.832031c-12.871094 0-23.34375 10.472656-23.34375 23.34375v465.3125c0 12.871094 10.472656 23.34375 23.34375 23.34375h13.832031c12.871094 0 23.339844-10.472656 23.339844-23.34375v-79.683594h37.019531v5.753906c0 20.132813 16.378906 36.511719 36.511719 36.511719s36.511719-16.378906 36.511719-36.511719v-5.753906h19.847656v5.753906c0 20.132813 16.378906 36.511719 36.507812 36.511719 20.132813 0 36.511719-16.378906 36.511719-36.511719v-5.753906h19.847657v5.753906c0 20.132813 16.378906 36.511719 36.511718 36.511719 20.128906 0 36.511719-16.378906 36.511719-36.511719v-5.753906h94.984375v79.683594c0 12.871094 10.472656 23.34375 23.34375 23.34375h13.832031c12.871094 0 23.34375-10.472656 23.34375-23.34375v-465.3125c0-12.871094-10.472656-23.34375-23.34375-23.34375zm-190.183593 83.164062c0-11.859374 9.648437-21.511718 21.511718-21.511718 11.859375 0 21.511719 9.648437 21.511719 21.511718v26.511719c0 11.859375-9.652344 21.507813-21.511719 21.507813-11.863281 0-21.511718-9.648438-21.511718-21.507813zm-92.867188 0c0-11.859374 9.648438-21.511718 21.507812-21.511718 11.863282 0 21.511719 9.648437 21.511719 21.511718v26.511719c0 11.859375-9.648437 21.507813-21.511719 21.507813-11.859374 0-21.507812-9.648438-21.507812-21.507813zm-92.871094 0c0-11.859374 9.652344-21.511718 21.511719-21.511718 11.863281 0 21.511719 9.648437 21.511719 21.511718v26.511719c0 11.859375-9.648438 21.507813-21.511719 21.507813-11.859375 0-21.511719-9.648438-21.511719-21.507813zm43.023438 331.5625c0 11.863282-9.648438 21.511719-21.511719 21.511719-11.859375 0-21.511719-9.648437-21.511719-21.511719v-26.507812c0-11.863281 9.652344-21.511719 21.511719-21.511719 11.863281 0 21.511719 9.648438 21.511719 21.511719zm92.867187 0c0 11.863282-9.648437 21.511719-21.511719 21.511719-11.859374 0-21.507812-9.648437-21.507812-21.511719v-26.507812c0-11.863281 9.648438-21.511719 21.507812-21.511719 11.863282 0 21.511719 9.648438 21.511719 21.511719zm92.871094 0c0 11.863282-9.652344 21.511719-21.511719 21.511719-11.863281 0-21.511718-9.648437-21.511718-21.511719v-26.507812c0-11.863281 9.648437-21.511719 21.511718-21.511719 11.859375 0 21.511719 9.648438 21.511719 21.511719zm109.984375-20.753906h-94.984375v-5.753906c0-20.132812-16.378906-36.511719-36.511719-36.511719-20.132812 0-36.511718 16.378907-36.511718 36.511719v5.753906h-19.847657v-5.753906c0-20.132812-16.378906-36.511719-36.511719-36.511719-20.128906 0-36.507812 16.378907-36.507812 36.511719v5.753906h-19.847656v-5.753906c0-20.132812-16.378906-36.511719-36.511719-36.511719s-36.511719 16.378907-36.511719 36.511719v5.753906h-37.019531v-47.898437c0-4.140625-3.355469-7.5-7.5-7.5-4.140625 0-7.5 3.359375-7.5 7.5v142.585937c0 4.597656-3.742187 8.339844-8.339844 8.339844h-13.832031c-4.601562 0-8.34375-3.742188-8.34375-8.339844v-465.316406c0-4.601562 3.742188-8.34375 8.34375-8.34375h13.832031c4.597657 0 8.339844 3.742188 8.339844 8.34375v287.816406c0 4.140625 3.359375 7.5 7.5 7.5 4.144531 0 7.5-3.359375 7.5-7.5v-54.714844h107.714844v5.753907c0 20.132812 16.378906 36.511719 36.511719 36.511719 20.132812 0 36.511718-16.378907 36.511718-36.511719v-5.753907h19.84375v5.753907c0 20.132812 16.378906 36.511719 36.511719 36.511719s36.511719-16.378907 36.511719-36.511719v-5.753907h19.847656v5.753907c0 20.132812 16.378906 36.511719 36.511719 36.511719 20.132812 0 36.507812-16.378907 36.507812-36.511719v-5.753907h24.296875v137.527344zm-268.050781-131.773437v-26.507813c0-11.863281 9.648437-21.511718 21.511719-21.511718 11.859374 0 21.511718 9.648437 21.511718 21.511718v26.507813c0 11.863281-9.652344 21.511719-21.511718 21.511719-11.863282 0-21.511719-9.648438-21.511719-21.511719zm92.867187 0v-26.507813c0-11.863281 9.648438-21.511718 21.511719-21.511718 11.859375 0 21.511719 9.648437 21.511719 21.511718v26.507813c0 11.863281-9.652344 21.511719-21.511719 21.511719-11.863281 0-21.511719-9.648438-21.511719-21.511719zm92.867188 0v-26.507813c0-11.863281 9.652344-21.511718 21.511718-21.511718 11.863282 0 21.511719 9.648437 21.511719 21.511718v26.507813c0 11.863281-9.648437 21.511719-21.511719 21.511719-11.859374 0-21.511718-9.648438-21.511718-21.511719zm127.835937 226.457031c0 4.601562-3.742187 8.34375-8.34375 8.34375h-13.832031c-4.601562 0-8.34375-3.742188-8.34375-8.34375v-287.816406c0-4.140625-3.355469-7.5-7.5-7.5-4.140625 0-7.5 3.359375-7.5 7.5v40.605468h-24.292969v-5.753906c0-20.132812-16.378906-36.511718-36.511719-36.511718-20.128906 0-36.507812 16.378906-36.507812 36.511718v5.753906h-19.847656v-5.753906c0-20.132812-16.378906-36.511718-36.511719-36.511718s-36.511719 16.378906-36.511719 36.511718v5.753906h-19.847656v-5.753906c0-20.132812-16.378906-36.511718-36.511719-36.511718-20.132812 0-36.507812 16.378906-36.507812 36.511718v5.753906h-107.714844v-137.527343h37.019531v5.757812c0 20.128907 16.378906 36.507813 36.511719 36.507813s36.511719-16.378906 36.511719-36.507813v-5.757812h19.847656v5.757812c0 20.128907 16.378906 36.507813 36.507812 36.507813 20.132813 0 36.511719-16.378906 36.511719-36.507813v-5.757812h19.847657v5.757812c0 20.128907 16.378906 36.507813 36.511718 36.507813 20.128906 0 36.511719-16.378906 36.511719-36.507813v-5.757812h94.984375v62.007812c0 4.140625 3.359375 7.5 7.5 7.5 4.144531 0 7.5-3.359375 7.5-7.5v-142.582031c0-4.601562 3.742188-8.34375 8.34375-8.34375h13.832031c4.601563 0 8.34375 3.742188 8.34375 8.34375zm0 0"/></svg>