<svg id="Layer_1" enable-background="new 0 0 512 512" height="512" viewBox="0 0 512 512" width="512" xmlns="http://www.w3.org/2000/svg"><g><path d="m284 280h32v48c0 8.276 11.08 11.06 15.023 3.831l48-88c2.902-5.32-.952-11.831-7.023-11.831h-32v-48c0-8.262-11.07-11.079-15.023-3.831l-48 88c-2.902 5.32.952 11.831 7.023 11.831zm40-64.627v24.627c0 4.418 3.582 8 8 8h26.523l-26.523 48.627v-24.627c0-4.418-3.582-8-8-8h-26.523z"/><path d="m456 132c0-14.081-10.449-25.762-24-27.71v-76.29c0-15.439-12.561-28-28-28s-28 12.561-28 28v76h-96v-76c0-15.439-12.561-28-28-28s-28 12.561-28 28v76.29c-13.551 1.947-24 13.629-24 27.71 0 11.147 6.549 20.791 16 25.293v98.707c0 44.589 26.194 83.171 64 101.179v26.821c0 14.884 10.214 27.426 24 30.987v27.013c0 12.131-9.869 22-22 22h-140c-12.131 0-22-9.869-22-22v-74.022c9.709-7.305 16-18.92 16-31.978 0-22.056-17.944-40-40-40s-40 17.944-40 40c0 13.058 6.291 24.673 16 31.978v76.022c0 37.495 30.505 68 68 68h144c37.495 0 68-30.505 68-68v-29.013c13.786-3.561 24-16.104 24-30.987v-26.821c37.806-18.008 64-56.59 64-101.179v-98.707c9.451-4.502 16-14.146 16-25.293zm-64-104c0-6.617 5.383-12 12-12s12 5.383 12 12v76h-24zm-152 0c0-6.617 5.383-12 12-12s12 5.383 12 12v76h-24zm-144 284c13.233 0 24 10.767 24 24s-10.767 24-24 24-24-10.767-24-24 10.767-24 24-24zm188 184h-144c-28.673 0-52-23.327-52-52v-68.805c5.107 1.041 10.578 1.105 16 0v66.805c0 20.953 17.047 38 38 38h140c20.953 0 38-17.047 38-38v-26h16v28c0 28.673-23.327 52-52 52zm76-112c0 8.822-7.178 16-16 16h-32c-8.822 0-16-7.178-16-16v-20.666c20.332 6.073 42.673 6.37 64 0zm64-128c0 52.935-43.065 96-96 96s-96-43.065-96-96v-96h192zm4-112h-200c-6.617 0-12-5.383-12-12s5.383-12 12-12h200c6.617 0 12 5.383 12 12s-5.383 12-12 12z"/></g></svg>