<svg id="Capa_1" enable-background="new 0 0 512.023 512.023" height="512" viewBox="0 0 512.023 512.023" width="512" xmlns="http://www.w3.org/2000/svg"><g id="XMLID_1802_"><g id="XMLID_150_"><path id="XMLID_229_" d="m506.75 334.119c-12.519-6.715-25.816-11.97-39.524-15.619-5.332-1.419-10.814 1.754-12.235 7.091s1.754 10.815 7.091 12.236c10.307 2.744 20.353 6.506 29.942 11.21v59.164h-88.924c-5.522 0-10 4.477-10 10s4.478 10 10 10h23.363l10.641 31.036c1.423 4.15 5.304 6.76 9.458 6.76 1.076 0 2.17-.175 3.244-.543 5.225-1.792 8.008-7.479 6.216-12.703l-8.417-24.55h44.419v63.811h-160.388v-28.007c0-1.736-.452-3.443-1.312-4.951l-18.238-32.003 18.946-24.526c.844-1.046 1.45-2.231 1.812-3.479.001-.002.001-.003.002-.005.218-.752.346-1.524.384-2.299.117-2.375-.608-4.799-2.223-6.789-.001-.001-.002-.002-.003-.004-.002-.002-.004-.004-.006-.007-.001-.002-.003-.003-.004-.005-.002-.002-.003-.003-.005-.005s-.004-.005-.006-.007c-.001-.001-.002-.003-.003-.004-.004-.004-.007-.007-.01-.011l-20.269-24.692c10.968-3.435 21.7-7.921 32.048-13.472 11.157-5.984 23.007-10.667 35.222-13.918 5.337-1.42 8.512-6.899 7.091-12.236-1.42-5.337-6.899-8.511-12.235-7.091-13.71 3.649-27.01 8.905-39.53 15.621-48.387 25.955-106.16 25.955-154.547 0-1.782-.956-3.576-1.876-5.38-2.769v-165.941c0-17.406 14.161-31.566 31.566-31.566 9.271 0 17.844 4.041 23.731 10.767-12.345 11.692-20.885 29.455-22.555 47.936-1.868 20.683 5.002 39.352 19.345 52.569 7.935 7.311 15.931 11.591 22.985 15.367 10.376 5.554 18.572 9.941 25.509 22.742 1.309 2.416 3.554 4.187 6.209 4.896.85.228 1.718.339 2.583.339 1.834 0 3.65-.504 5.24-1.483 18.113-11.146 30.978-28.647 36.222-49.281 5.256-20.679 2.274-42.246-8.396-60.728-14.241-24.664-40.08-39.922-68.311-40.671-9.483-13.89-25.292-22.454-42.562-22.454-11.992 0-23.032 4.126-31.801 11.018-2.448-26.172-24.531-46.727-51.332-46.727-17.27 0-33.08 8.564-42.562 22.454-28.241.753-54.07 16.007-68.311 40.672-10.67 18.482-13.653 40.048-8.397 60.727 5.245 20.634 18.108 38.135 36.223 49.281 1.59.979 3.406 1.483 5.24 1.483.864 0 1.733-.112 2.583-.339 2.655-.71 4.9-2.481 6.209-4.896 6.937-12.801 15.133-17.188 25.509-22.742 7.055-3.776 15.051-8.056 22.985-15.367 14.343-13.217 21.213-31.886 19.345-52.568-1.67-18.481-10.209-36.245-22.555-47.937 5.887-6.726 14.461-10.767 23.731-10.767 17.406 0 31.566 14.161 31.566 31.566v193.177c-48.364-17.21-102.009-13.47-148.072 11.239-3.247 1.742-5.273 5.128-5.273 8.813v159.08c0 5.523 4.478 10 10 10h492c5.522 0 10-4.477 10-10v-159.08c-.001-3.685-2.027-7.071-5.274-8.813zm-208.261-147.149c15.077 26.115 9.092 58.282-13.084 77.227-8.631-11.233-18.557-16.546-27.524-21.346-6.586-3.525-12.808-6.855-18.87-12.442-12.388-11.416-13.896-25.911-12.979-36.062 1.033-11.425 5.675-22.656 12.372-30.893l11.609 27.315c2.159 5.082 8.03 7.454 13.114 5.292 5.083-2.16 7.452-8.032 5.292-13.115l-10.811-25.437c17.012 3.466 31.964 14.016 40.881 29.461zm-197.781-28.33c.917 10.15-.591 24.646-12.979 36.061-6.063 5.586-12.284 8.917-18.87 12.442-8.968 4.8-18.894 10.113-27.524 21.346-22.176-18.944-28.162-51.112-13.084-77.227 8.918-15.447 23.869-25.996 40.881-29.462l-10.811 25.438c-2.16 5.083.209 10.955 5.292 13.115 5.083 2.163 10.955-.208 13.114-5.292l11.609-27.315c6.697 8.237 11.339 19.468 12.372 30.894zm188.498 211.911 21.253 25.89-36.131 46.771h-18.305c-5.522 0-10 4.477-10 10s4.478 10 10 10h23.216c3.098 0 6.021-1.436 7.914-3.887l11.685-15.127 12.797 22.455v25.357h-188.076l13.187-21.189c1.939-3.117 2.016-7.045.198-10.235l-19.399-34.04 17.314-22.412h20.095l11.34 33.073c1.423 4.15 5.304 6.76 9.458 6.76 1.076 0 2.17-.175 3.244-.543 5.225-1.791 8.008-7.479 6.216-12.703l-9.116-26.587h12.175c5.522 0 10-4.477 10-10s-4.478-10-10-10h-52.741l-31.703-51.421c22.558 1.64 44.865 7.978 65.469 19.03 37.277 19.997 79.519 26.264 119.91 18.808zm-269.183-21.515c19.145-9.403 39.618-14.846 60.301-16.336l37.482 60.794-39.143 50.669h-19.555c-5.522 0-10 4.477-10 10s4.478 10 10 10h24.467c3.098 0 6.021-1.436 7.914-3.887l12.81-16.582 12.319 21.617-16.616 26.699h-79.979z"/><path id="XMLID_1142_" d="m446.404 131.249c36.183 0 65.619-29.437 65.619-65.619s-29.436-65.619-65.619-65.619c-36.182 0-65.618 29.437-65.618 65.619 0 36.183 29.436 65.619 65.618 65.619zm0-111.237c25.154 0 45.619 20.464 45.619 45.619s-20.465 45.619-45.619 45.619-45.618-20.465-45.618-45.619 20.464-45.619 45.618-45.619z"/><path id="XMLID_1145_" d="m436.404 170.855v49.472c0 5.523 4.478 10 10 10s10-4.477 10-10v-49.472c0-5.523-4.478-10-10-10s-10 4.477-10 10z"/><path id="XMLID_1170_" d="m314.324 75.63h26.856c5.522 0 10-4.477 10-10s-4.478-10-10-10h-26.856c-5.522 0-10 4.477-10 10s4.478 10 10 10z"/><path id="XMLID_1283_" d="m341.692 170.342c1.953 1.953 4.512 2.929 7.071 2.929s5.118-.977 7.071-2.929l23.063-23.062c3.905-3.905 3.905-10.237 0-14.142-3.904-3.905-10.234-3.905-14.143 0l-23.062 23.062c-3.905 3.905-3.905 10.236 0 14.142z"/><path id="XMLID_1393_" d="m412.949 315.251c-1.86 1.87-2.93 4.44-2.93 7.07 0 2.64 1.069 5.22 2.93 7.08 1.87 1.86 4.44 2.93 7.07 2.93s5.21-1.07 7.069-2.93c1.87-1.86 2.931-4.44 2.931-7.08 0-2.63-1.061-5.21-2.931-7.07-1.859-1.86-4.439-2.93-7.069-2.93s-5.2 1.07-7.07 2.93z"/></g></g></svg>