<svg id="fi_5926886" height="512" viewBox="0 0 512 512" width="512" xmlns="http://www.w3.org/2000/svg" data-name="Layer 1"><path d="m401.161 344.71h-104.611l51.94-21.516a8.065 8.065 0 0 0 -6.174-14.9l-51.952 21.521 73.979-73.979a8.063 8.063 0 0 0 -11.4-11.4l-73.983 73.974 21.521-51.951a8.065 8.065 0 0 0 -14.9-6.175l-21.515 51.94v-298.159a8.065 8.065 0 0 0 -16.13 0v298.178l-21.523-51.959a8.065 8.065 0 1 0 -14.9 6.175l21.521 51.951-73.979-73.979a8.064 8.064 0 0 0 -11.4 11.4l73.979 73.979-51.951-21.521a8.065 8.065 0 0 0 -6.175 14.9l51.94 21.516h-104.6a8.065 8.065 0 1 0 0 16.129h104.613l-51.961 21.528a8.065 8.065 0 0 0 6.175 14.9l51.951-21.521-73.979 73.98a8.063 8.063 0 0 0 11.4 11.4l73.974-73.974-21.51 51.953a8.065 8.065 0 0 0 14.9 6.174l21.523-51.966v104.627a8.065 8.065 0 0 0 16.13 0v-104.61l21.515 51.947a8.065 8.065 0 0 0 14.9-6.174l-21.516-51.947 73.975 73.974a8.063 8.063 0 0 0 11.4-11.4l-73.979-73.98 51.952 21.521a8.065 8.065 0 0 0 6.174-14.9l-51.959-21.523h104.63c10.462.157 10.476-16.293.005-16.133zm-169.355 8.064a24.156 24.156 0 0 1 16.129-22.708v22.708a8.065 8.065 0 0 0 16.13 0v-22.708c25.12 8.417 18.743 47.2-8.066 46.9a24.219 24.219 0 0 1 -24.193-24.192z" fill="rgb(0,0,0)"></path></svg>