<?xml version="1.0" encoding="UTF-8" standalone="no"?>
<svg
   id="Capa_1"
   enable-background="new 0 0 512 512"
   height="512"
   viewBox="0 0 512 512"
   width="512"
   version="1.1"
   sodipodi:docname="icon.svg"
   inkscape:version="1.1.1 (3bf5ae0d25, 2021-09-20)"
   xmlns:inkscape="http://www.inkscape.org/namespaces/inkscape"
   xmlns:sodipodi="http://sodipodi.sourceforge.net/DTD/sodipodi-0.dtd"
   xmlns="http://www.w3.org/2000/svg"
   xmlns:svg="http://www.w3.org/2000/svg">
  <defs
     id="defs17" />
  <sodipodi:namedview
     id="namedview15"
     pagecolor="#ffffff"
     bordercolor="#cccccc"
     borderopacity="1"
     inkscape:pageshadow="0"
     inkscape:pageopacity="1"
     inkscape:pagecheckerboard="0"
     showgrid="false"
     inkscape:zoom="1.7050781"
     inkscape:cx="255.70676"
     inkscape:cy="255.70676"
     inkscape:window-width="2880"
     inkscape:window-height="1526"
     inkscape:window-x="5749"
     inkscape:window-y="1587"
     inkscape:window-maximized="1"
     inkscape:current-layer="Capa_1" />
  <g
     id="g1081"
     transform="translate(74)">
    <path
       d="M 216.36,81.577 C 214.398,-27.2 52.783,-27.186 50.841,81.581 c 0,-0.003 0,259.841 0,259.841 -54.659,65.629 -3.011,172.991 82.763,170.537 85.752,2.453 137.438,-104.918 82.757,-170.537 V 81.577 Z m -82.759,400.386 c -41.548,0 -75.35,-33.814 -75.35,-75.376 0,-18.379 6.689,-36.081 18.837,-49.847 2.392,-2.73 3.74,-6.294 3.753,-9.924 V 81.577 c 1.253,-69.362 104.282,-69.338 105.52,0.002 0,-0.002 0,84.091 0,84.091 h -37.76 v -45.247 c 0,-8.284 -6.716,-14.999 -15,-14.999 -8.284,0 -15,6.715 -15,14.999 v 243.618 c -46.818,15.675 -35.101,88.245 15.002,87.669 50.098,0.572 61.82,-72.002 14.998,-87.669 v -47.882 h 37.76 c 1.01,7.911 -2.972,34.643 3.752,40.581 42.993,46.048 6.714,127.09 -56.512,125.223 z m 15,-256.047 v -30.248 h 37.76 v 30.248 z m 37.759,29.998 v 30.248 H 148.6 V 255.914 Z M 133.6,421.713 c -19.764,-0.104 -19.763,-30.146 0.001,-30.248 19.766,0.105 19.764,30.146 -0.001,30.248 z"
       id="path8" />
    <path
       d="m 314.526,110.86 c -2.85,-3.42 -7.071,-5.397 -11.523,-5.397 -4.452,0 -8.674,1.977 -11.523,5.397 l -37.656,45.184 c -5.304,6.364 -4.443,15.821 1.921,21.124 6.363,5.302 15.821,4.443 21.126,-1.921 l 11.143,-13.37 v 169.869 c 0,8.284 6.716,14.999 15,14.999 8.284,0 15,-6.715 15,-14.999 V 161.901 l 11.123,13.347 c 2.967,3.56 7.233,5.397 11.531,5.397 3.386,0 6.791,-1.14 9.595,-3.476 6.364,-5.303 7.225,-14.761 1.921,-21.124 z"
       id="path10" />
  </g>
</svg>
